<svg height="512" viewBox="0 0 64 64" width="512" xmlns="http://www.w3.org/2000/svg"><g fill-rule="evenodd"><path d="m48 64h-32a16.0007 16.0007 0 0 1 -16-16v-32a16.0007 16.0007 0 0 1 16-16h32a16 16 0 0 1 16 16v32a16 16 0 0 1 -16 16" fill="#ff5000"/><path d="m30 18h18a9.0006 9.0006 0 0 0 .92-17.954c-.306-.017-.609-.046-.92-.046h-32a16.0007 16.0007 0 0 0 -16 16v32a30.0007 30.0007 0 0 1 30-30" fill="#ff8200"/><path d="m48 32a16 16 0 1 0 16 16v-32a16 16 0 0 1 -16 16" fill="#f00"/></g><circle cx="18" cy="46" fill="#fff" r="4"/><path d="m18 14a4 4 0 0 0 0 8 24.0113 24.0113 0 0 1 24 24 4 4 0 0 0 8 0 32.0149 32.0149 0 0 0 -32-32z" fill="#fff" fill-rule="evenodd"/><path d="m18 28a4 4 0 0 0 0 8 10.0049 10.0049 0 0 1 10 10 4 4 0 0 0 8 0 18.0078 18.0078 0 0 0 -18-18z" fill="#fff" fill-rule="evenodd"/></svg>