<?xml version="1.0" encoding="iso-8859-1"?>
<!-- Generator: Adobe Illustrator 19.0.0, SVG Export Plug-In . SVG Version: 6.00 Build 0)  -->
<svg version="1.1" id="Layer_1" xmlns="http://www.w3.org/2000/svg" xmlns:xlink="http://www.w3.org/1999/xlink" x="0px" y="0px"
	 viewBox="0 0 512 512" style="enable-background:new 0 0 512 512;" xml:space="preserve">
<path style="fill:#CEE8FA;" d="M348.792,461.923v-7.255c0-72.621-59.418-132.039-132.039-132.039l0,0
	c-72.621,0-132.039,59.418-132.039,132.039v7.255c0,19.765,16.023,35.787,35.787,35.787h192.504
	C332.771,497.71,348.792,481.687,348.792,461.923z"/>
<g>
	<path style="fill:#2D527C;" d="M313.006,512H120.502c-27.612,0-50.077-22.465-50.077-50.077v-7.255
		c0-80.686,65.644-146.329,146.329-146.329c80.686,0,146.329,65.644,146.329,146.329v7.255C363.082,489.535,340.619,512,313.006,512
		z M216.755,336.918c-64.928,0-117.749,52.822-117.749,117.749v7.255c0,11.853,9.644,21.497,21.497,21.497h192.504
		c11.853,0,21.497-9.644,21.497-21.497v-7.255C334.503,389.741,281.681,336.918,216.755,336.918z"/>
	<path style="fill:#2D527C;" d="M216.754,335.325c-60.932,0-110.505-49.572-110.505-110.505s49.572-110.503,110.505-110.503
		s110.505,49.572,110.505,110.505S277.686,335.325,216.754,335.325z M216.754,142.896c-45.174,0-81.925,36.751-81.925,81.925
		s36.751,81.925,81.925,81.925s81.925-36.751,81.925-81.925S261.927,142.896,216.754,142.896z"/>
	<path style="fill:#2D527C;" d="M426.515,257.213c-0.409,0-0.82-0.017-1.235-0.053c-7.864-0.673-13.692-7.592-13.019-15.456
		c0.487-5.694,0.734-11.375,0.734-16.885c0-108.208-88.034-196.241-196.242-196.241c-7.892,0-14.29-6.397-14.29-14.29
		S208.861,0,216.754,0C340.72,0,441.575,100.855,441.575,224.821c0,6.319-0.281,12.819-0.839,19.321
		C440.099,251.59,433.854,257.213,426.515,257.213z"/>
	<path style="fill:#2D527C;" d="M369.071,257.215c-0.56,0-1.125-0.033-1.693-0.1c-7.838-0.925-13.441-8.029-12.516-15.867
		c0.647-5.477,0.975-11.004,0.975-16.427c0-76.691-62.393-139.084-139.084-139.084c-7.892,0-14.29-6.397-14.29-14.29
		s6.397-14.29,14.29-14.29c92.45,0,167.663,75.213,167.663,167.663c0,6.539-0.394,13.194-1.172,19.778
		C382.386,251.867,376.214,257.215,369.071,257.215z"/>
</g>
<g>
</g>
<g>
</g>
<g>
</g>
<g>
</g>
<g>
</g>
<g>
</g>
<g>
</g>
<g>
</g>
<g>
</g>
<g>
</g>
<g>
</g>
<g>
</g>
<g>
</g>
<g>
</g>
<g>
</g>
</svg>
