<?xml version="1.0" encoding="UTF-8"?>
<svg width="772px" height="418px" viewBox="0 0 772 418" version="1.1" xmlns="http://www.w3.org/2000/svg"
    xmlns:xlink="http://www.w3.org/1999/xlink">
    <title>episync-flow</title>
    <defs>
        <rect id="path-1" x="0" y="0" width="34" height="34"></rect>
        <polygon id="path-3" points="0 33.999998 33.999998 33.999998 33.999998 0 0 0"></polygon>
        <rect id="path-5" x="0" y="0" width="34" height="34"></rect>
        <polygon id="path-7" points="0 33.999998 33.999998 33.999998 33.999998 0 0 0"></polygon>
        <rect id="path-9" x="0" y="0" width="34" height="34"></rect>
        <polygon id="path-11" points="0 33.999998 33.999998 33.999998 33.999998 0 0 0"></polygon>
    </defs>
    <g id="EpiSync" stroke="none" stroke-width="1" fill="none" fill-rule="evenodd">
        <g id="episync-flow">
            <g id="Receiving" transform="translate(410.000000, 251.000000)">
                <rect id="Rectangle" fill="#15A9E9" fill-rule="nonzero" x="0" y="0" width="177" height="100" rx="10">
                </rect>
                <text id="CDC-Analytics" font-family="SegoeUI, Segoe UI" font-size="14" font-weight="normal"
                    fill="#000000">
                    <tspan x="88" y="45">CDC </tspan>
                    <tspan x="88" y="64">Analytics</tspan>
                </text>
                <g id="building" transform="translate(17.000000, 15.000000)" fill-rule="nonzero">
                    <polygon id="Path" fill="#DBD8DD" points="3 9 48 9 48 66 3 66"></polygon>
                    <polygon id="Path" fill="#EEEFEE" points="13 0 38 0 38 66 13 66"></polygon>
                    <polygon id="Path" fill="#69B0EE" points="6 12 11 12 11 20 6 20"></polygon>
                    <polygon id="Path" fill="#69B0EE" points="6 22 11 22 11 30 6 30"></polygon>
                    <polygon id="Path" fill="#69B0EE" points="6 34 11 34 11 42 6 42"></polygon>
                    <polygon id="Path" fill="#69B0EE" points="6 45 11 45 11 53 6 53"></polygon>
                    <polygon id="Path" fill="#69B0EE" points="6 56 11 56 11 64 6 64"></polygon>
                    <polygon id="Path" fill="#69B0EE" points="40 12 45 12 45 20 40 20"></polygon>
                    <polygon id="Path" fill="#69B0EE" points="40 22 45 22 45 30 40 30"></polygon>
                    <polygon id="Path" fill="#69B0EE" points="40 34 45 34 45 42 40 42"></polygon>
                    <polygon id="Path" fill="#69B0EE" points="40 45 45 45 45 53 40 53"></polygon>
                    <polygon id="Path" fill="#69B0EE" points="40 56 45 56 45 64 40 64"></polygon>
                    <polygon id="Path" fill="#69B0EE" points="15 4 35 4 35 8 15 8"></polygon>
                    <polygon id="Path" fill="#69B0EE" points="15 11 35 11 35 15 15 15"></polygon>
                    <polygon id="Path" fill="#69B0EE" points="15 19 35 19 35 23 15 23"></polygon>
                    <polygon id="Path" fill="#69B0EE" points="15 26 35 26 35 30 15 30"></polygon>
                    <polygon id="Path" fill="#69B0EE" points="15 34 35 34 35 38 15 38"></polygon>
                    <polygon id="Path" fill="#69B0EE" points="15 42 35 42 35 46 15 46"></polygon>
                    <polygon id="Path" fill="#575B6D" points="16 49 34 49 34 66 16 66"></polygon>
                    <polygon id="Path" fill="#EEEFEE" opacity="0.5" points="40.2452357 64 40 64 42.7542628 56 43 56">
                    </polygon>
                    <polygon id="Path" fill="#EEEFEE" opacity="0.5" points="42.3651631 64 41 64 43.6353167 56 45 56">
                    </polygon>
                    <polygon id="Path" fill="#EEEFEE" opacity="0.5" points="40.2452357 53 40 53 42.7542628 45 43 45">
                    </polygon>
                    <polygon id="Path" fill="#EEEFEE" opacity="0.5" points="42.3651631 53 41 53 43.6353167 45 45 45">
                    </polygon>
                    <polygon id="Path" fill="#EEEFEE" opacity="0.5" points="40.2452357 42 40 42 42.7542628 34 43 34">
                    </polygon>
                    <polygon id="Path" fill="#EEEFEE" opacity="0.5" points="42.3651631 42 41 42 43.6353167 34 45 34">
                    </polygon>
                    <polygon id="Path" fill="#EEEFEE" opacity="0.5" points="40.2452357 30 40 30 42.7542628 22 43 22">
                    </polygon>
                    <polygon id="Path" fill="#EEEFEE" opacity="0.5" points="42.3651631 30 41 30 43.6353167 22 45 22">
                    </polygon>
                    <polygon id="Path" fill="#EEEFEE" opacity="0.5" points="40.2452357 20 40 20 42.7542628 12 43 12">
                    </polygon>
                    <polygon id="Path" fill="#EEEFEE" opacity="0.5" points="42.3651631 20 41 20 43.6353167 12 45 12">
                    </polygon>
                    <polygon id="Path" fill="#EEEFEE" opacity="0.5" points="25 4 22.7113545 8 22 8 24.2752237 4">
                    </polygon>
                    <polygon id="Path" fill="#EEEFEE" opacity="0.5" points="30 4 28.0588468 8 25 8 26.9415482 4">
                    </polygon>
                    <polygon id="Path" fill="#EEEFEE" opacity="0.5" points="25 11 22.7113545 15 22 15 24.2752237 11">
                    </polygon>
                    <polygon id="Path" fill="#EEEFEE" opacity="0.5" points="30 11 28.0588468 15 25 15 26.9415482 11">
                    </polygon>
                    <polygon id="Path" fill="#EEEFEE" opacity="0.5" points="25 19 22.7113545 23 22 23 24.2752237 19">
                    </polygon>
                    <polygon id="Path" fill="#EEEFEE" opacity="0.5" points="30 19 28.0588468 23 25 23 26.9415482 19">
                    </polygon>
                    <polygon id="Path" fill="#EEEFEE" opacity="0.5" points="25 26 22.7113545 30 22 30 24.2752237 26">
                    </polygon>
                    <polygon id="Path" fill="#EEEFEE" opacity="0.5" points="30 26 28.0588468 30 25 30 26.9415482 26">
                    </polygon>
                    <polygon id="Path" fill="#EEEFEE" opacity="0.5" points="25 34 22.7113545 38 22 38 24.2752237 34">
                    </polygon>
                    <polygon id="Path" fill="#EEEFEE" opacity="0.5" points="30 34 28.0588468 38 25 38 26.9415482 34">
                    </polygon>
                    <polygon id="Path" fill="#EEEFEE" opacity="0.5" points="25 42 22.7113545 46 22 46 24.2752237 42">
                    </polygon>
                    <polygon id="Path" fill="#EEEFEE" opacity="0.5" points="30 42 28.0588468 46 25 46 26.9415482 42">
                    </polygon>
                    <polygon id="Path" fill="#EEEFEE" opacity="0.5" points="5.24477512 64 5 64 7.7542217 56 8 56">
                    </polygon>
                    <polygon id="Path" fill="#EEEFEE" opacity="0.5" points="7.3649994 64 6 64 8.6350006 56 10 56">
                    </polygon>
                    <polygon id="Path" fill="#EEEFEE" opacity="0.5" points="5.24477512 53 5 53 7.7542217 45 8 45">
                    </polygon>
                    <polygon id="Path" fill="#EEEFEE" opacity="0.5" points="7.3649994 53 6 53 8.6350006 45 10 45">
                    </polygon>
                    <polygon id="Path" fill="#EEEFEE" opacity="0.5" points="5.24477512 42 5 42 7.7542217 34 8 34">
                    </polygon>
                    <polygon id="Path" fill="#EEEFEE" opacity="0.5" points="7.3649994 42 6 42 8.6350006 34 10 34">
                    </polygon>
                    <polygon id="Path" fill="#EEEFEE" opacity="0.5" points="5.24477512 30 5 30 7.7542217 22 8 22">
                    </polygon>
                    <polygon id="Path" fill="#EEEFEE" opacity="0.5" points="7.3649994 30 6 30 8.6350006 22 10 22">
                    </polygon>
                    <polygon id="Path" fill="#EEEFEE" opacity="0.5" points="5.24477512 20 5 20 7.7542217 12 8 12">
                    </polygon>
                    <polygon id="Path" fill="#EEEFEE" opacity="0.5" points="7.3649994 20 6 20 8.6350006 12 10 12">
                    </polygon>
                    <polygon id="Path" fill="#BBBBCD" points="0 65 50 65 50 69 0 69"></polygon>
                    <polygon id="Path" fill="#EEEFEE" points="24 48 26 48 26 65 24 65"></polygon>
                </g>
            </g>
            <g id="Arizona" transform="translate(0.000000, 318.000000)">
                <rect id="Rectangle" fill="#15A9E9" fill-rule="nonzero" x="0" y="0" width="177" height="100" rx="10">
                </rect>
                <text id="Arizona-PHD" font-family="SegoeUI, Segoe UI" font-size="14" font-weight="normal"
                    fill="#000000">
                    <tspan x="90" y="46">Arizona</tspan>
                    <tspan x="90" y="65">Cases</tspan>
                </text>
                <g id="School" transform="translate(22.000000, 23.000000)" fill-rule="nonzero">
                    <polygon id="Path" fill="#E6BE94"
                        points="54 53 3 53 3 28.4541847 13.5518787 28.4541847 28.4998431 13 43.4486591 28.4541847 54 28.4541847">
                    </polygon>
                    <polygon id="Path" fill="#996459" points="33 42 23 42 23 53 33 53"></polygon>
                    <path
                        d="M32.7918702,38 L23.2081298,38 C23.0930213,38 23,38.1120407 23,38.2502728 L23,42 L33,42 L33,38.2502728 C33,38.1120407 32.9069787,38 32.7918702,38 Z"
                        id="Path" fill="#4BB9EC"></path>
                    <path
                        d="M36.5020696,5.50002122 L37.8599713,3.36043558 C38.030293,3.09211731 38.0464332,2.7469366 37.901596,2.46236305 C37.7567588,2.17774706 37.4743051,2 37.1667916,2 L28.8333447,2 C28.3729239,2 28,2.3913576 28,2.87502653 L28,8.12501592 C28,8.6086424 28.3729239,9 28.8333447,9 L37.1667916,9 C37.4743051,9 37.7567588,8.82225294 37.901596,8.53767939 C38.0464332,8.2530634 38.030293,7.90788269 37.860396,7.63960687 L36.5020696,5.50002122 Z"
                        id="Path" fill="#FF4F19"></path>
                    <path
                        d="M28,14 C27.4475025,14 27,13.5825909 27,13.0669413 L27,0.933330315 C27,0.417454348 27.4475025,0 28,0 C28.5530071,0 29,0.417454348 29,0.933330315 L29,13.0669413 C29,13.5825909 28.5530071,14 28,14 Z"
                        id="Path" fill="#5C546A"></path>
                    <path
                        d="M32.0655331,16.5699787 C32.1979041,16.2247677 32.5107016,16 32.8575748,16 L49.1427028,16 C49.4358413,16 49.7088838,16.1616358 49.8661562,16.427596 L55.8661012,26.5810977 C56.0342954,26.866311 56.0443433,27.2258498 55.8944976,27.5213611 C55.7437782,27.8164248 55.4558822,28 55.1426478,28 L42.2860597,28 C42.0580147,28 41.8404544,27.9028394 41.679687,27.7295623 L32.2516389,17.5756129 C32.0061191,17.3118913 31.9322884,16.9151897 32.0655331,16.5699787 Z"
                        id="Path" fill="#FF4F19"></path>
                    <path
                        d="M23.9346605,16.5699787 C23.8022885,16.22432 23.4890518,16 23.1426129,16 L6.85709981,16 C6.56417761,16 6.29126412,16.1616358 6.13390308,16.427596 L0.133912828,26.5810977 C-0.0342826177,26.866311 -0.0443306573,27.2258498 0.10542882,27.5213611 C0.256193101,27.8164248 0.544091279,28 0.857153243,28 L13.7141878,28 C13.9418852,28 14.1594907,27.9028394 14.320172,27.7295623 L23.7485534,17.5756129 C23.994075,17.3118913 24.0674694,16.9151897 23.9346605,16.5699787 Z"
                        id="Path" fill="#FF4F19"></path>
                    <path
                        d="M43.1380153,29 C42.9175229,29 42.6970305,28.9127041 42.5288063,28.7376781 L28.4998682,14.1614411 L14.4711059,28.7376781 C14.1344817,29.0872959 13.5890924,29.0872959 13.2524682,28.7376781 C12.9158439,28.3880604 12.9158439,27.8212887 13.2524682,27.471671 L27.8906592,12.2622133 C28.2271077,11.9125956 28.7726287,11.9125956 29.1095165,12.2622133 L43.7476636,27.471671 C44.0841121,27.8212887 44.0841121,28.3880604 43.7476636,28.7376781 C43.5790001,28.9122698 43.3585077,29 43.1380153,29 Z"
                        id="Path" fill="#E3001E"></path>
                    <path
                        d="M28,34 C30.7616378,34 33,31.5375723 33,28.4997777 C33,25.4624277 30.7616378,23 28,23 C25.238787,23 23,25.4624277 23,28.4997777 C23,31.5375723 25.238787,34 28,34 Z"
                        id="Path" fill="#FFEBB7"></path>
                    <path
                        d="M28.2,24 C27.758002,24 27.4,24.4472255 27.4,25.000194 L27.4,27.000097 L25.8,27.000097 C25.358002,27.000097 25,27.4473225 25,27.999806 C25,28.5527745 25.358002,29 25.8,29 L28.2,29 C28.6424057,29 29,28.5527745 29,27.999806 L29,25.000194 C29,24.4472255 28.6424057,24 28.2,24 Z"
                        id="Path" fill="#5C546A"></path>
                    <path
                        d="M41,34.1428868 C41,32.9591851 40.1045872,32 39,32 C37.8954128,32 37,32.9591851 37,34.1428868 C37,34.2896542 37.0142712,34.4330954 37.040367,34.5715474 L37,34.5715474 L37,38 L41,38 L41,34.5715474 L40.959633,34.5715474 C40.9861366,34.4330954 41,34.2896542 41,34.1428868 Z"
                        id="Path" fill="#4BB9EC"></path>
                    <path
                        d="M39,31 C37.3460026,31 36,32.3960658 36,34.111183 L36,38.1109674 C36,38.6024791 36.3835736,39 36.8571429,39 L41.1428571,39 C41.6164264,39 42,38.6024791 42,38.1109674 L42,34.111183 C42,32.3960658 40.6539974,31 39,31 Z M39,32.7780652 C39.7090433,32.7780652 40.2857143,33.3760711 40.2857143,34.111183 L40.2857143,34.5556993 L37.7142857,34.5556993 L37.7142857,34.111183 C37.7142857,33.3760711 38.2909567,32.7780652 39,32.7780652 Z M37.7142857,37.2223659 L37.7142857,36.3333333 L40.2857143,36.3333333 L40.2857143,37.2223659 L37.7142857,37.2223659 Z"
                        id="Shape" fill="#7E5C62"></path>
                    <polygon id="Path" fill="#4BB9EC" points="19 43 15 43 15 48 19 48"></polygon>
                    <path
                        d="M19.1428384,42 L14.8571616,42 C14.3833636,42 14,42.3913175 14,42.8751592 L14,48.1248408 C14,48.6086825 14.3833636,49 14.8571616,49 L19.1428384,49 C19.6168549,49 20,48.6086825 20,48.1248408 L20,42.8751592 C20,42.3913175 19.6168549,42 19.1428384,42 Z M18.2856768,43.7498939 L18.2856768,44.6250531 L15.7143232,44.6250531 L15.7143232,43.7498939 L18.2856768,43.7498939 Z M15.7143232,47.2501061 L15.7143232,46.3749469 L18.2856768,46.3749469 L18.2856768,47.2501061 L15.7143232,47.2501061 Z"
                        id="Shape" fill="#7E5C62"></path>
                    <polygon id="Path" fill="#4BB9EC" points="11 43 7 43 7 48 11 48"></polygon>
                    <path
                        d="M11.1428509,42 L6.8571491,42 C6.38335797,42 6,42.3913175 6,42.8751592 L6,48.1248408 C6,48.6086825 6.38335797,49 6.8571491,49 L11.1428509,49 C11.616642,49 12,48.6086825 12,48.1248408 L12,42.8751592 C12,42.3913175 11.616642,42 11.1428509,42 Z M10.2857018,43.7498939 L10.2857018,44.6250531 L7.7142982,44.6250531 L7.7142982,43.7498939 L10.2857018,43.7498939 Z M7.7142982,47.2501061 L7.7142982,46.3749469 L10.2857018,46.3749469 L10.2857018,47.2501061 L7.7142982,47.2501061 Z"
                        id="Shape" fill="#7E5C62"></path>
                    <polygon id="Path" fill="#4BB9EC" points="49 43 45 43 45 48 49 48"></polygon>
                    <path
                        d="M49.1428571,42 L44.8571429,42 C44.3831367,42 44,42.3913175 44,42.8751592 L44,48.1248408 C44,48.6086825 44.3831367,49 44.8571429,49 L49.1428571,49 C49.6164264,49 50,48.6086825 50,48.1248408 L50,42.8751592 C50,42.3913175 49.6164264,42 49.1428571,42 Z M48.2857143,43.7498939 L48.2857143,44.6250531 L45.7142857,44.6250531 L45.7142857,43.7498939 L48.2857143,43.7498939 Z M45.7142857,47.2501061 L45.7142857,46.3749469 L48.2857143,46.3749469 L48.2857143,47.2501061 L45.7142857,47.2501061 Z"
                        id="Shape" fill="#7E5C62"></path>
                    <polygon id="Path" fill="#4BB9EC" points="41 43 37 43 37 48 41 48"></polygon>
                    <path
                        d="M41.1428571,42 L36.8571429,42 C36.3835736,42 36,42.3913175 36,42.8751592 L36,48.1248408 C36,48.6086825 36.3835736,49 36.8571429,49 L41.1428571,49 C41.6168633,49 42,48.6086825 42,48.1248408 L42,42.8751592 C42,42.3913175 41.6168633,42 41.1428571,42 Z M40.2857143,43.7498939 L40.2857143,44.6250531 L37.7142857,44.6250531 L37.7142857,43.7498939 L40.2857143,43.7498939 Z M37.7142857,47.2501061 L37.7142857,46.3749469 L40.2857143,46.3749469 L40.2857143,47.2501061 L37.7142857,47.2501061 Z"
                        id="Shape" fill="#7E5C62"></path>
                    <path
                        d="M49,34.1428868 C49,32.9591851 48.1045872,32 47,32 C45.8954128,32 45,32.9591851 45,34.1428868 C45,34.2896542 45.0138634,34.4330954 45.040367,34.5715474 L45,34.5715474 L45,38 L49,38 L49,34.5715474 L48.959633,34.5715474 C48.9857288,34.4330954 49,34.2896542 49,34.1428868 Z"
                        id="Path" fill="#4BB9EC"></path>
                    <path
                        d="M47,31 C45.3460026,31 44,32.3960658 44,34.111183 L44,38.1109674 C44,38.6024791 44.3835736,39 44.8571429,39 L49.1428571,39 C49.6168633,39 50,38.6024791 50,38.1109674 L50,34.111183 C50,32.3960658 48.6539974,31 47,31 Z M47,32.7780652 C47.7090433,32.7780652 48.2857143,33.3760711 48.2857143,34.111183 L48.2857143,34.5556993 L45.7142857,34.5556993 L45.7142857,34.111183 C45.7142857,33.3760711 46.2909567,32.7780652 47,32.7780652 Z M45.7142857,37.2223659 L45.7142857,36.3333333 L48.2857143,36.3333333 L48.2857143,37.2223659 L45.7142857,37.2223659 Z"
                        id="Shape" fill="#7E5C62"></path>
                    <path
                        d="M11,34.1428868 C11,32.9591851 10.1045872,32 9,32 C7.89541284,32 7,32.9591851 7,34.1428868 C7,34.2896542 7.01410805,34.4330954 7.0403262,34.5715474 L7,34.5715474 L7,38 L11,38 L11,34.5715474 L10.9597146,34.5715474 C10.9858919,34.4330954 11,34.2896542 11,34.1428868 Z"
                        id="Path" fill="#4BB9EC"></path>
                    <path
                        d="M9.00002184,31 C7.34592505,31 6,32.3960658 6,34.111183 L6,38.1109674 C6,38.6024791 6.38335797,39 6.8571491,39 L11.1428509,39 C11.616642,39 12,38.6024791 12,38.1109674 L12,34.111183 C12,32.3960658 10.654075,31 9.00002184,31 Z M9.00002184,32.7780652 C9.70898288,32.7780652 10.2857018,33.3760711 10.2857018,34.111183 L10.2857018,34.5556993 L7.7142982,34.5556993 L7.7142982,34.111183 C7.7142982,33.3760711 8.29106081,32.7780652 9.00002184,32.7780652 Z M7.7142982,37.2223659 L7.7142982,36.3333333 L10.2857018,36.3333333 L10.2857018,37.2223659 L7.7142982,37.2223659 Z"
                        id="Shape" fill="#7E5C62"></path>
                    <path
                        d="M19,34.1428868 C19,32.9591851 18.1045506,32 16.9999184,32 C15.8954494,32 15,32.9591851 15,34.1428868 C15,34.2896542 15.0141086,34.4330954 15.0402871,34.5715474 L15,34.5715474 L15,38 L19,38 L19,34.5715474 L18.9600391,34.5715474 C18.986136,34.4330954 19,34.2896542 19,34.1428868 Z"
                        id="Path" fill="#4BB9EC"></path>
                    <path
                        d="M16.9999782,31 C15.345925,31 14,32.3960658 14,34.111183 L14,38.1109674 C14,38.6024791 14.383358,39 14.8571491,39 L19.1428509,39 C19.6168605,39 20,38.6024791 20,38.1109674 L20,34.111183 C20,32.3960658 18.6539876,31 16.9999782,31 Z M16.9999782,32.7780652 C17.7090266,32.7780652 18.2857018,33.3760711 18.2857018,34.111183 L18.2857018,34.5556993 L15.7142982,34.5556993 L15.7142982,34.111183 C15.7142982,33.3760711 16.2909297,32.7780652 16.9999782,32.7780652 Z M15.7142982,37.2223659 L15.7142982,36.3333333 L18.2857018,36.3333333 L18.2857018,37.2223659 L15.7142982,37.2223659 Z"
                        id="Shape" fill="#7E5C62"></path>
                    <path
                        d="M28,35 C24.6915684,35 22,32.0840869 22,28.4997748 C22,24.9159131 24.6915684,22 28,22 C31.3084316,22 34,24.9159131 34,28.4997748 C34,32.0840869 31.3084316,35 28,35 Z M28,23.8570142 C25.6369594,23.8570142 23.7142857,25.9396806 23.7142857,28.4997748 C23.7142857,31.0603194 25.6369594,33.1429858 28,33.1429858 C30.3630406,33.1429858 32.2857143,31.0603194 32.2857143,28.4997748 C32.2857143,25.9396806 30.3630406,23.8570142 28,23.8570142 Z"
                        id="Shape" fill="#7E5C62"></path>
                    <path
                        d="M31.4285714,38 L24.5714286,38 C23.1537789,38 22,39.1960441 22,40.6667385 L22,53.1113746 C22,53.6024684 22.3835736,54 22.8571429,54 C23.331149,54 23.7142857,53.6024684 23.7142857,53.1113746 L23.7142857,43.3334771 L27.1192661,43.3334771 L27.1192661,53.1113746 L28.8335518,53.1113746 L28.8335518,43.3334771 L32.2857143,43.3334771 L32.2857143,53.1113746 C32.2857143,53.6024684 32.6692879,54 33.1428571,54 C33.6168633,54 34,53.6024684 34,53.1113746 L34,40.6667385 C34,39.1960441 32.8466579,38 31.4285714,38 Z M32.2857143,41.5553639 L23.7142857,41.5553639 L23.7142857,40.6667385 C23.7142857,40.1760759 24.0987331,39.777682 24.5714286,39.777682 L31.4285714,39.777682 C31.9017038,39.777682 32.2857143,40.1760759 32.2857143,40.6667385 L32.2857143,41.5553639 Z"
                        id="Shape" fill="#7E5C62"></path>
                    <path
                        d="M55.1249965,54 L0.875003484,54 C0.391343301,54 0,53.5527528 0,53.0002425 C0,52.4472472 0.391343301,52 0.875003484,52 L55.1249965,52 C55.6084337,52 56,52.4472472 56,53.0002425 C56,53.5527528 55.6084337,54 55.1249965,54 Z"
                        id="Path" fill="#5C546A"></path>
                </g>
            </g>
            <g id="California" transform="translate(0.000000, 185.000000)">
                <rect id="Rectangle" fill="#15A9E9" fill-rule="nonzero" x="0" y="0" width="177" height="100" rx="10">
                </rect>
                <text id="California-Cases" font-family="SegoeUI, Segoe UI" font-size="14" font-weight="normal"
                    fill="#000000">
                    <tspan x="90" y="46">California</tspan>
                    <tspan x="90" y="65">Cases</tspan>
                </text>
                <g id="School" transform="translate(22.000000, 23.000000)" fill-rule="nonzero">
                    <polygon id="Path" fill="#E6BE94"
                        points="54 53 3 53 3 28.4541847 13.5518787 28.4541847 28.4998431 13 43.4486591 28.4541847 54 28.4541847">
                    </polygon>
                    <polygon id="Path" fill="#996459" points="33 42 23 42 23 53 33 53"></polygon>
                    <path
                        d="M32.7918702,38 L23.2081298,38 C23.0930213,38 23,38.1120407 23,38.2502728 L23,42 L33,42 L33,38.2502728 C33,38.1120407 32.9069787,38 32.7918702,38 Z"
                        id="Path" fill="#4BB9EC"></path>
                    <path
                        d="M36.5020696,5.50002122 L37.8599713,3.36043558 C38.030293,3.09211731 38.0464332,2.7469366 37.901596,2.46236305 C37.7567588,2.17774706 37.4743051,2 37.1667916,2 L28.8333447,2 C28.3729239,2 28,2.3913576 28,2.87502653 L28,8.12501592 C28,8.6086424 28.3729239,9 28.8333447,9 L37.1667916,9 C37.4743051,9 37.7567588,8.82225294 37.901596,8.53767939 C38.0464332,8.2530634 38.030293,7.90788269 37.860396,7.63960687 L36.5020696,5.50002122 Z"
                        id="Path" fill="#FF4F19"></path>
                    <path
                        d="M28,14 C27.4475025,14 27,13.5825909 27,13.0669413 L27,0.933330315 C27,0.417454348 27.4475025,0 28,0 C28.5530071,0 29,0.417454348 29,0.933330315 L29,13.0669413 C29,13.5825909 28.5530071,14 28,14 Z"
                        id="Path" fill="#5C546A"></path>
                    <path
                        d="M32.0655331,16.5699787 C32.1979041,16.2247677 32.5107016,16 32.8575748,16 L49.1427028,16 C49.4358413,16 49.7088838,16.1616358 49.8661562,16.427596 L55.8661012,26.5810977 C56.0342954,26.866311 56.0443433,27.2258498 55.8944976,27.5213611 C55.7437782,27.8164248 55.4558822,28 55.1426478,28 L42.2860597,28 C42.0580147,28 41.8404544,27.9028394 41.679687,27.7295623 L32.2516389,17.5756129 C32.0061191,17.3118913 31.9322884,16.9151897 32.0655331,16.5699787 Z"
                        id="Path" fill="#FF4F19"></path>
                    <path
                        d="M23.9346605,16.5699787 C23.8022885,16.22432 23.4890518,16 23.1426129,16 L6.85709981,16 C6.56417761,16 6.29126412,16.1616358 6.13390308,16.427596 L0.133912828,26.5810977 C-0.0342826177,26.866311 -0.0443306573,27.2258498 0.10542882,27.5213611 C0.256193101,27.8164248 0.544091279,28 0.857153243,28 L13.7141878,28 C13.9418852,28 14.1594907,27.9028394 14.320172,27.7295623 L23.7485534,17.5756129 C23.994075,17.3118913 24.0674694,16.9151897 23.9346605,16.5699787 Z"
                        id="Path" fill="#FF4F19"></path>
                    <path
                        d="M43.1380153,29 C42.9175229,29 42.6970305,28.9127041 42.5288063,28.7376781 L28.4998682,14.1614411 L14.4711059,28.7376781 C14.1344817,29.0872959 13.5890924,29.0872959 13.2524682,28.7376781 C12.9158439,28.3880604 12.9158439,27.8212887 13.2524682,27.471671 L27.8906592,12.2622133 C28.2271077,11.9125956 28.7726287,11.9125956 29.1095165,12.2622133 L43.7476636,27.471671 C44.0841121,27.8212887 44.0841121,28.3880604 43.7476636,28.7376781 C43.5790001,28.9122698 43.3585077,29 43.1380153,29 Z"
                        id="Path" fill="#E3001E"></path>
                    <path
                        d="M28,34 C30.7616378,34 33,31.5375723 33,28.4997777 C33,25.4624277 30.7616378,23 28,23 C25.238787,23 23,25.4624277 23,28.4997777 C23,31.5375723 25.238787,34 28,34 Z"
                        id="Path" fill="#FFEBB7"></path>
                    <path
                        d="M28.2,24 C27.758002,24 27.4,24.4472255 27.4,25.000194 L27.4,27.000097 L25.8,27.000097 C25.358002,27.000097 25,27.4473225 25,27.999806 C25,28.5527745 25.358002,29 25.8,29 L28.2,29 C28.6424057,29 29,28.5527745 29,27.999806 L29,25.000194 C29,24.4472255 28.6424057,24 28.2,24 Z"
                        id="Path" fill="#5C546A"></path>
                    <path
                        d="M41,34.1428868 C41,32.9591851 40.1045872,32 39,32 C37.8954128,32 37,32.9591851 37,34.1428868 C37,34.2896542 37.0142712,34.4330954 37.040367,34.5715474 L37,34.5715474 L37,38 L41,38 L41,34.5715474 L40.959633,34.5715474 C40.9861366,34.4330954 41,34.2896542 41,34.1428868 Z"
                        id="Path" fill="#4BB9EC"></path>
                    <path
                        d="M39,31 C37.3460026,31 36,32.3960658 36,34.111183 L36,38.1109674 C36,38.6024791 36.3835736,39 36.8571429,39 L41.1428571,39 C41.6164264,39 42,38.6024791 42,38.1109674 L42,34.111183 C42,32.3960658 40.6539974,31 39,31 Z M39,32.7780652 C39.7090433,32.7780652 40.2857143,33.3760711 40.2857143,34.111183 L40.2857143,34.5556993 L37.7142857,34.5556993 L37.7142857,34.111183 C37.7142857,33.3760711 38.2909567,32.7780652 39,32.7780652 Z M37.7142857,37.2223659 L37.7142857,36.3333333 L40.2857143,36.3333333 L40.2857143,37.2223659 L37.7142857,37.2223659 Z"
                        id="Shape" fill="#7E5C62"></path>
                    <polygon id="Path" fill="#4BB9EC" points="19 43 15 43 15 48 19 48"></polygon>
                    <path
                        d="M19.1428384,42 L14.8571616,42 C14.3833636,42 14,42.3913175 14,42.8751592 L14,48.1248408 C14,48.6086825 14.3833636,49 14.8571616,49 L19.1428384,49 C19.6168549,49 20,48.6086825 20,48.1248408 L20,42.8751592 C20,42.3913175 19.6168549,42 19.1428384,42 Z M18.2856768,43.7498939 L18.2856768,44.6250531 L15.7143232,44.6250531 L15.7143232,43.7498939 L18.2856768,43.7498939 Z M15.7143232,47.2501061 L15.7143232,46.3749469 L18.2856768,46.3749469 L18.2856768,47.2501061 L15.7143232,47.2501061 Z"
                        id="Shape" fill="#7E5C62"></path>
                    <polygon id="Path" fill="#4BB9EC" points="11 43 7 43 7 48 11 48"></polygon>
                    <path
                        d="M11.1428509,42 L6.8571491,42 C6.38335797,42 6,42.3913175 6,42.8751592 L6,48.1248408 C6,48.6086825 6.38335797,49 6.8571491,49 L11.1428509,49 C11.616642,49 12,48.6086825 12,48.1248408 L12,42.8751592 C12,42.3913175 11.616642,42 11.1428509,42 Z M10.2857018,43.7498939 L10.2857018,44.6250531 L7.7142982,44.6250531 L7.7142982,43.7498939 L10.2857018,43.7498939 Z M7.7142982,47.2501061 L7.7142982,46.3749469 L10.2857018,46.3749469 L10.2857018,47.2501061 L7.7142982,47.2501061 Z"
                        id="Shape" fill="#7E5C62"></path>
                    <polygon id="Path" fill="#4BB9EC" points="49 43 45 43 45 48 49 48"></polygon>
                    <path
                        d="M49.1428571,42 L44.8571429,42 C44.3831367,42 44,42.3913175 44,42.8751592 L44,48.1248408 C44,48.6086825 44.3831367,49 44.8571429,49 L49.1428571,49 C49.6164264,49 50,48.6086825 50,48.1248408 L50,42.8751592 C50,42.3913175 49.6164264,42 49.1428571,42 Z M48.2857143,43.7498939 L48.2857143,44.6250531 L45.7142857,44.6250531 L45.7142857,43.7498939 L48.2857143,43.7498939 Z M45.7142857,47.2501061 L45.7142857,46.3749469 L48.2857143,46.3749469 L48.2857143,47.2501061 L45.7142857,47.2501061 Z"
                        id="Shape" fill="#7E5C62"></path>
                    <polygon id="Path" fill="#4BB9EC" points="41 43 37 43 37 48 41 48"></polygon>
                    <path
                        d="M41.1428571,42 L36.8571429,42 C36.3835736,42 36,42.3913175 36,42.8751592 L36,48.1248408 C36,48.6086825 36.3835736,49 36.8571429,49 L41.1428571,49 C41.6168633,49 42,48.6086825 42,48.1248408 L42,42.8751592 C42,42.3913175 41.6168633,42 41.1428571,42 Z M40.2857143,43.7498939 L40.2857143,44.6250531 L37.7142857,44.6250531 L37.7142857,43.7498939 L40.2857143,43.7498939 Z M37.7142857,47.2501061 L37.7142857,46.3749469 L40.2857143,46.3749469 L40.2857143,47.2501061 L37.7142857,47.2501061 Z"
                        id="Shape" fill="#7E5C62"></path>
                    <path
                        d="M49,34.1428868 C49,32.9591851 48.1045872,32 47,32 C45.8954128,32 45,32.9591851 45,34.1428868 C45,34.2896542 45.0138634,34.4330954 45.040367,34.5715474 L45,34.5715474 L45,38 L49,38 L49,34.5715474 L48.959633,34.5715474 C48.9857288,34.4330954 49,34.2896542 49,34.1428868 Z"
                        id="Path" fill="#4BB9EC"></path>
                    <path
                        d="M47,31 C45.3460026,31 44,32.3960658 44,34.111183 L44,38.1109674 C44,38.6024791 44.3835736,39 44.8571429,39 L49.1428571,39 C49.6168633,39 50,38.6024791 50,38.1109674 L50,34.111183 C50,32.3960658 48.6539974,31 47,31 Z M47,32.7780652 C47.7090433,32.7780652 48.2857143,33.3760711 48.2857143,34.111183 L48.2857143,34.5556993 L45.7142857,34.5556993 L45.7142857,34.111183 C45.7142857,33.3760711 46.2909567,32.7780652 47,32.7780652 Z M45.7142857,37.2223659 L45.7142857,36.3333333 L48.2857143,36.3333333 L48.2857143,37.2223659 L45.7142857,37.2223659 Z"
                        id="Shape" fill="#7E5C62"></path>
                    <path
                        d="M11,34.1428868 C11,32.9591851 10.1045872,32 9,32 C7.89541284,32 7,32.9591851 7,34.1428868 C7,34.2896542 7.01410805,34.4330954 7.0403262,34.5715474 L7,34.5715474 L7,38 L11,38 L11,34.5715474 L10.9597146,34.5715474 C10.9858919,34.4330954 11,34.2896542 11,34.1428868 Z"
                        id="Path" fill="#4BB9EC"></path>
                    <path
                        d="M9.00002184,31 C7.34592505,31 6,32.3960658 6,34.111183 L6,38.1109674 C6,38.6024791 6.38335797,39 6.8571491,39 L11.1428509,39 C11.616642,39 12,38.6024791 12,38.1109674 L12,34.111183 C12,32.3960658 10.654075,31 9.00002184,31 Z M9.00002184,32.7780652 C9.70898288,32.7780652 10.2857018,33.3760711 10.2857018,34.111183 L10.2857018,34.5556993 L7.7142982,34.5556993 L7.7142982,34.111183 C7.7142982,33.3760711 8.29106081,32.7780652 9.00002184,32.7780652 Z M7.7142982,37.2223659 L7.7142982,36.3333333 L10.2857018,36.3333333 L10.2857018,37.2223659 L7.7142982,37.2223659 Z"
                        id="Shape" fill="#7E5C62"></path>
                    <path
                        d="M19,34.1428868 C19,32.9591851 18.1045506,32 16.9999184,32 C15.8954494,32 15,32.9591851 15,34.1428868 C15,34.2896542 15.0141086,34.4330954 15.0402871,34.5715474 L15,34.5715474 L15,38 L19,38 L19,34.5715474 L18.9600391,34.5715474 C18.986136,34.4330954 19,34.2896542 19,34.1428868 Z"
                        id="Path" fill="#4BB9EC"></path>
                    <path
                        d="M16.9999782,31 C15.345925,31 14,32.3960658 14,34.111183 L14,38.1109674 C14,38.6024791 14.383358,39 14.8571491,39 L19.1428509,39 C19.6168605,39 20,38.6024791 20,38.1109674 L20,34.111183 C20,32.3960658 18.6539876,31 16.9999782,31 Z M16.9999782,32.7780652 C17.7090266,32.7780652 18.2857018,33.3760711 18.2857018,34.111183 L18.2857018,34.5556993 L15.7142982,34.5556993 L15.7142982,34.111183 C15.7142982,33.3760711 16.2909297,32.7780652 16.9999782,32.7780652 Z M15.7142982,37.2223659 L15.7142982,36.3333333 L18.2857018,36.3333333 L18.2857018,37.2223659 L15.7142982,37.2223659 Z"
                        id="Shape" fill="#7E5C62"></path>
                    <path
                        d="M28,35 C24.6915684,35 22,32.0840869 22,28.4997748 C22,24.9159131 24.6915684,22 28,22 C31.3084316,22 34,24.9159131 34,28.4997748 C34,32.0840869 31.3084316,35 28,35 Z M28,23.8570142 C25.6369594,23.8570142 23.7142857,25.9396806 23.7142857,28.4997748 C23.7142857,31.0603194 25.6369594,33.1429858 28,33.1429858 C30.3630406,33.1429858 32.2857143,31.0603194 32.2857143,28.4997748 C32.2857143,25.9396806 30.3630406,23.8570142 28,23.8570142 Z"
                        id="Shape" fill="#7E5C62"></path>
                    <path
                        d="M31.4285714,38 L24.5714286,38 C23.1537789,38 22,39.1960441 22,40.6667385 L22,53.1113746 C22,53.6024684 22.3835736,54 22.8571429,54 C23.331149,54 23.7142857,53.6024684 23.7142857,53.1113746 L23.7142857,43.3334771 L27.1192661,43.3334771 L27.1192661,53.1113746 L28.8335518,53.1113746 L28.8335518,43.3334771 L32.2857143,43.3334771 L32.2857143,53.1113746 C32.2857143,53.6024684 32.6692879,54 33.1428571,54 C33.6168633,54 34,53.6024684 34,53.1113746 L34,40.6667385 C34,39.1960441 32.8466579,38 31.4285714,38 Z M32.2857143,41.5553639 L23.7142857,41.5553639 L23.7142857,40.6667385 C23.7142857,40.1760759 24.0987331,39.777682 24.5714286,39.777682 L31.4285714,39.777682 C31.9017038,39.777682 32.2857143,40.1760759 32.2857143,40.6667385 L32.2857143,41.5553639 Z"
                        id="Shape" fill="#7E5C62"></path>
                    <path
                        d="M55.1249965,54 L0.875003484,54 C0.391343301,54 0,53.5527528 0,53.0002425 C0,52.4472472 0.391343301,52 0.875003484,52 L55.1249965,52 C55.6084337,52 56,52.4472472 56,53.0002425 C56,53.5527528 55.6084337,54 55.1249965,54 Z"
                        id="Path" fill="#5C546A"></path>
                </g>
            </g>
            <path
                d="M221.6153,238.056605 C222.128233,237.473033 222.128233,236.526967 221.6153,235.943395 L213.245287,226.436933 C212.731477,225.854356 211.898509,225.854356 211.3847,226.436933 C210.871767,227.020506 210.871767,227.966571 211.3847,228.550144 L218.825296,237 L211.3847,245.449856 C210.871767,246.033429 210.871767,246.979494 211.3847,247.563067 C211.898509,248.145644 212.731477,248.145644 213.245287,247.563067 L221.6153,238.056605 Z M179,238 L221,238 L221,235 L179,235 L179,238 Z"
                id="Shape" fill="#000000" fill-rule="nonzero"></path>
            <path
                d="M221.6153,370.056605 C222.128233,369.473033 222.128233,368.526967 221.6153,367.943395 L213.245287,358.436933 C212.731477,357.854356 211.898509,357.854356 211.3847,358.436933 C210.871767,359.020506 210.871767,359.966571 211.3847,360.550144 L218.825296,369 L211.3847,377.449856 C210.871767,378.033429 210.871767,378.979494 211.3847,379.563067 C211.898509,380.145644 212.731477,380.145644 213.245287,379.563067 L221.6153,370.056605 Z M179,370 L221,370 L221,367 L179,367 L179,370 Z"
                id="Shape-Copy" fill="#000000" fill-rule="nonzero"></path>
            <path
                d="M221.6153,370.056605 C222.128233,369.473033 222.128233,368.526967 221.6153,367.943395 L213.245287,358.436933 C212.731477,357.854356 211.898509,357.854356 211.3847,358.436933 C210.871767,359.020506 210.871767,359.966571 211.3847,360.550144 L218.825296,369 L211.3847,377.449856 C210.871767,378.033429 210.871767,378.979494 211.3847,379.563067 C211.898509,380.145644 212.731477,380.145644 213.245287,379.563067 L221.6153,370.056605 Z M179,370 L221,370 L221,367 L179,367 L179,370 Z"
                id="Shape-Copy-3" fill="#000000" fill-rule="nonzero"></path>
            <path
                d="M629.6153,302.056605 C630.128233,301.473033 630.128233,300.526967 629.6153,299.943395 L621.245287,290.436933 C620.731477,289.854356 619.898509,289.854356 619.3847,290.436933 C618.871767,291.020506 618.871767,291.966571 619.3847,292.550144 L626.825296,301 L619.3847,309.449856 C618.871767,310.033429 618.871767,310.979494 619.3847,311.563067 C619.898509,312.145644 620.731477,312.145644 621.245287,311.563067 L629.6153,302.056605 Z M587,302 L629,302 L629,299 L587,299 L587,302 Z"
                id="Shape-Copy-3" fill="#000000" fill-rule="nonzero"></path>
            <path
                d="M409.061,261.061 C409.646,260.475 409.646,259.525 409.061,258.939 L399.515,249.393 C398.929,248.808 397.979,248.808 397.393,249.393 C396.808,249.979 396.808,250.929 397.393,251.515 L405.879,260 L397.393,268.485 C396.808,269.071 396.808,270.021 397.393,270.607 C397.979,271.192 398.929,271.192 399.515,270.607 L409.061,261.061 Z M360,261.5 L408,261.5 L408,258.5 L360,258.5 L360,261.5 Z"
                id="Shape" fill="#000000" fill-rule="nonzero"
                transform="translate(384.749875, 260.000000) rotate(45.000000) translate(-384.749875, -260.000000) ">
            </path>
            <path
                d="M409.061,348.061 C409.646,347.475 409.646,346.525 409.061,345.939 L399.515,336.393 C398.929,335.808 397.979,335.808 397.393,336.393 C396.808,336.979 396.808,337.929 397.393,338.515 L405.879,347 L397.393,355.485 C396.808,356.071 396.808,357.021 397.393,357.607 C397.979,358.192 398.929,358.192 399.515,357.607 L409.061,348.061 Z M360,348.5 L408,348.5 L408,345.5 L360,345.5 L360,348.5 Z"
                id="Shape-Copy-2" fill="#000000" fill-rule="nonzero"
                transform="translate(384.749875, 347.000000) rotate(-45.000000) translate(-384.749875, -347.000000) ">
            </path>
            <g id="CA-Feed" transform="translate(224.000000, 182.026000)">
                <g id="cloud" fill-rule="nonzero">
                    <path
                        d="M117.56,76.467 C128.984,76.467 138.246,68.125 138.246,57.835 C138.246,48.945 131.332,41.515 122.085,39.655 C122.872,37.134 123.293,34.475 123.293,31.727 C123.293,15.574 108.756,2.481 90.823,2.481 C74.044,2.481 60.238,13.944 58.531,28.65 C53.96,24.891 47.167,23.729 41.179,26.185 C34.74,28.826 31.197,34.846 31.95,40.853 C29.354,39.796 26.475,39.203 23.44,39.203 C12.015,39.203 2.754,47.545 2.754,57.835 C2.754,68.126 12.015,76.467 23.44,76.467 L117.56,76.467 L117.56,76.467 Z"
                        id="Path" fill="#93E7F8"></path>
                    <path
                        d="M117.56,78.948 L65.451,78.948 C63.93,78.948 62.697,77.837 62.697,76.467 C62.697,75.097 63.93,73.987 65.451,73.987 L117.56,73.987 C127.448,73.987 135.492,66.741 135.492,57.835 C135.492,50.336 129.601,43.708 121.485,42.076 C120.747,41.928 120.109,41.512 119.721,40.928 C119.333,40.343 119.229,39.64 119.434,38.985 C120.168,36.633 120.54,34.191 120.54,31.727 C120.54,16.968 107.209,4.961 90.823,4.961 C75.56,4.961 62.855,15.256 61.27,28.908 C61.162,29.839 60.481,30.636 59.509,30.969 C58.538,31.301 57.442,31.113 56.674,30.482 C52.767,27.269 47.133,26.469 42.32,28.443 C37.112,30.58 34.044,35.455 34.687,40.576 C34.798,41.462 34.372,42.334 33.571,42.859 C32.771,43.385 31.718,43.482 30.816,43.114 C28.485,42.165 26.003,41.684 23.44,41.684 C13.552,41.683 5.508,48.929 5.508,57.835 C5.508,66.741 13.552,73.987 23.44,73.987 L43.42,73.987 C44.941,73.987 46.174,75.097 46.174,76.467 C46.174,77.837 44.941,78.948 43.42,78.948 L23.44,78.948 C10.515,78.948 0,69.477 0,57.835 C0,46.193 10.515,36.722 23.44,36.722 C25.405,36.722 27.333,36.939 29.207,37.368 C29.919,31.568 33.945,26.427 40.037,23.928 C45.407,21.725 51.499,21.958 56.55,24.378 C58.182,18.185 61.863,12.549 67.176,8.212 C73.663,2.917 82.061,0 90.823,0 C110.246,0 126.048,14.233 126.048,31.727 C126.048,33.818 125.821,35.896 125.373,37.932 C129.418,39.224 133.043,41.517 135.772,44.546 C139.143,48.288 141,53.007 141,57.835 C141,69.477 130.485,78.948 117.56,78.948 Z"
                        id="Path" fill="#000000"></path>
                    <path
                        d="M90.913,14.883 C90.909,14.883 90.905,14.883 90.901,14.883 L90.823,14.883 C89.302,14.883 88.069,13.772 88.069,12.402 C88.069,11.032 89.302,9.922 90.823,9.922 L90.925,9.922 C92.446,9.928 93.674,11.044 93.6670298,12.413 C93.66,13.78 92.429,14.883 90.913,14.883 Z"
                        id="Path" fill="#000000"></path>
                    <path
                        d="M112.278,34.207 C110.757,34.207 109.524,33.097 109.524,31.727 C109.524,25.736 105.944,20.147 100.181,17.14 C98.865,16.453 98.416,14.935 99.179,13.75 C99.941,12.564 101.626,12.16 102.942,12.847 C110.399,16.738 115.032,23.972 115.032,31.727 C115.032,33.097 113.799,34.207 112.278,34.207 Z"
                        id="Path" fill="#000000"></path>
                    <path
                        d="M54.436,78.948 C53.709,78.948 53.002,78.683 52.489,78.221 C51.974,77.76 51.683,77.12 51.683,76.467 C51.683,75.815 51.974,75.175 52.489,74.714 C53.002,74.252 53.712,73.987 54.436,73.987 C55.161,73.987 55.871,74.252 56.383,74.714 C56.896,75.175 57.19,75.815 57.19,76.467 C57.19,77.12 56.896,77.76 56.383,78.221 C55.871,78.683 55.161,78.948 54.436,78.948 Z"
                        id="Path" fill="#000000"></path>
                </g>
                <g id="Feed" transform="translate(40.000000, 35.000000)">
                    <g id="folder" transform="translate(38.000000, 0.000000)">
                        <mask id="mask-2" fill="white">
                            <use xlink:href="#path-1"></use>
                        </mask>
                        <g id="bg"></g>
                        <g id="g1047" mask="url(#mask-2)">
                            <g transform="translate(16.999999, 17.000000) scale(-1, 1) rotate(-180.000000) translate(-16.999999, -17.000000) translate(0.000000, 0.000001)"
                                id="g1051-Clipped">
                                <mask id="mask-4" fill="white">
                                    <use xlink:href="#path-3"></use>
                                </mask>
                                <g id="path1053"></g>
                                <g id="g1051" mask="url(#mask-4)">
                                    <g transform="translate(0.995416, 4.814094)">
                                        <g id="g1057" transform="translate(-0.000000, 0.000000)" stroke-linecap="round">
                                            <path
                                                d="M26.2191117,0 L1.16091399,0 C0.519761688,0 0,0.484632784 0,1.08242181 L0,23.3373463 C0,23.9086392 0.496718721,24.3718228 1.10951556,24.3718228 L9.16459321,24.3718228 C9.5355385,24.3718228 9.88191348,24.1989673 10.0877728,23.9111626 L12.306804,20.8076667 C12.4945344,20.5450964 12.8105617,20.387448 13.1490344,20.387448 L25.5295493,20.387448 C26.1423461,20.387448 26.6390648,19.9242644 26.6390648,19.3529715 L26.6390648,13.7841437"
                                                id="path1059" stroke="#000000" stroke-width="1.99999995"></path>
                                        </g>
                                        <g id="g1061" transform="translate(0.161500, 0.000000)">
                                            <path
                                                d="M26.0576117,0 L31.6729239,11.2779056 C32.239502,12.415843 31.3482638,13.7177375 30.002674,13.7177375 L7.4549644,13.7177375 C6.72230429,13.7177375 6.05937074,13.3127922 5.76678481,12.6865813 L0,0.345644511"
                                                id="path1063" stroke="#000000" stroke-width="1.99999995"></path>
                                        </g>
                                    </g>
                                </g>
                            </g>
                        </g>
                    </g>
                    <text font-family="SegoeUI, Segoe UI" font-size="14" font-weight="normal" fill="#000000">
                        <tspan x="0" y="23">Feed</tspan>
                    </text>
                </g>
            </g>
            <g id="CDC-Feed" transform="translate(631.000000, 243.026000)">
                <g id="cloud" fill-rule="nonzero">
                    <path
                        d="M117.56,76.467 C128.984,76.467 138.246,68.125 138.246,57.835 C138.246,48.945 131.332,41.515 122.085,39.655 C122.872,37.134 123.293,34.475 123.293,31.727 C123.293,15.574 108.756,2.481 90.823,2.481 C74.044,2.481 60.238,13.944 58.531,28.65 C53.96,24.891 47.167,23.729 41.179,26.185 C34.74,28.826 31.197,34.846 31.95,40.853 C29.354,39.796 26.475,39.203 23.44,39.203 C12.015,39.203 2.754,47.545 2.754,57.835 C2.754,68.126 12.015,76.467 23.44,76.467 L117.56,76.467 L117.56,76.467 Z"
                        id="Path" fill="#93E7F8"></path>
                    <path
                        d="M117.56,78.948 L65.451,78.948 C63.93,78.948 62.697,77.837 62.697,76.467 C62.697,75.097 63.93,73.987 65.451,73.987 L117.56,73.987 C127.448,73.987 135.492,66.741 135.492,57.835 C135.492,50.336 129.601,43.708 121.485,42.076 C120.747,41.928 120.109,41.512 119.721,40.928 C119.333,40.343 119.229,39.64 119.434,38.985 C120.168,36.633 120.54,34.191 120.54,31.727 C120.54,16.968 107.209,4.961 90.823,4.961 C75.56,4.961 62.855,15.256 61.27,28.908 C61.162,29.839 60.481,30.636 59.509,30.969 C58.538,31.301 57.442,31.113 56.674,30.482 C52.767,27.269 47.133,26.469 42.32,28.443 C37.112,30.58 34.044,35.455 34.687,40.576 C34.798,41.462 34.372,42.334 33.571,42.859 C32.771,43.385 31.718,43.482 30.816,43.114 C28.485,42.165 26.003,41.684 23.44,41.684 C13.552,41.683 5.508,48.929 5.508,57.835 C5.508,66.741 13.552,73.987 23.44,73.987 L43.42,73.987 C44.941,73.987 46.174,75.097 46.174,76.467 C46.174,77.837 44.941,78.948 43.42,78.948 L23.44,78.948 C10.515,78.948 0,69.477 0,57.835 C0,46.193 10.515,36.722 23.44,36.722 C25.405,36.722 27.333,36.939 29.207,37.368 C29.919,31.568 33.945,26.427 40.037,23.928 C45.407,21.725 51.499,21.958 56.55,24.378 C58.182,18.185 61.863,12.549 67.176,8.212 C73.663,2.917 82.061,0 90.823,0 C110.246,0 126.048,14.233 126.048,31.727 C126.048,33.818 125.821,35.896 125.373,37.932 C129.418,39.224 133.043,41.517 135.772,44.546 C139.143,48.288 141,53.007 141,57.835 C141,69.477 130.485,78.948 117.56,78.948 Z"
                        id="Path" fill="#000000"></path>
                    <path
                        d="M90.913,14.883 C90.909,14.883 90.905,14.883 90.901,14.883 L90.823,14.883 C89.302,14.883 88.069,13.772 88.069,12.402 C88.069,11.032 89.302,9.922 90.823,9.922 L90.925,9.922 C92.446,9.928 93.674,11.044 93.6670298,12.413 C93.66,13.78 92.429,14.883 90.913,14.883 Z"
                        id="Path" fill="#000000"></path>
                    <path
                        d="M112.278,34.207 C110.757,34.207 109.524,33.097 109.524,31.727 C109.524,25.736 105.944,20.147 100.181,17.14 C98.865,16.453 98.416,14.935 99.179,13.75 C99.941,12.564 101.626,12.16 102.942,12.847 C110.399,16.738 115.032,23.972 115.032,31.727 C115.032,33.097 113.799,34.207 112.278,34.207 Z"
                        id="Path" fill="#000000"></path>
                    <path
                        d="M54.436,78.948 C53.709,78.948 53.002,78.683 52.489,78.221 C51.974,77.76 51.683,77.12 51.683,76.467 C51.683,75.815 51.974,75.175 52.489,74.714 C53.002,74.252 53.712,73.987 54.436,73.987 C55.161,73.987 55.871,74.252 56.383,74.714 C56.896,75.175 57.19,75.815 57.19,76.467 C57.19,77.12 56.896,77.76 56.383,78.221 C55.871,78.683 55.161,78.948 54.436,78.948 Z"
                        id="Path" fill="#000000"></path>
                </g>
                <g id="Feed" transform="translate(39.000000, 39.000000)">
                    <g id="folder" transform="translate(38.000000, 0.000000)">
                        <mask id="mask-6" fill="white">
                            <use xlink:href="#path-5"></use>
                        </mask>
                        <g id="bg"></g>
                        <g id="g1047" mask="url(#mask-6)">
                            <g transform="translate(16.999999, 17.000000) scale(-1, 1) rotate(-180.000000) translate(-16.999999, -17.000000) translate(0.000000, 0.000001)"
                                id="g1051-Clipped">
                                <mask id="mask-8" fill="white">
                                    <use xlink:href="#path-7"></use>
                                </mask>
                                <g id="path1053"></g>
                                <g id="g1051" mask="url(#mask-8)">
                                    <g transform="translate(0.995416, 4.814094)">
                                        <g id="g1057" transform="translate(-0.000000, 0.000000)" stroke-linecap="round">
                                            <path
                                                d="M26.2191117,0 L1.16091399,0 C0.519761688,0 0,0.484632784 0,1.08242181 L0,23.3373463 C0,23.9086392 0.496718721,24.3718228 1.10951556,24.3718228 L9.16459321,24.3718228 C9.5355385,24.3718228 9.88191348,24.1989673 10.0877728,23.9111626 L12.306804,20.8076667 C12.4945344,20.5450964 12.8105617,20.387448 13.1490344,20.387448 L25.5295493,20.387448 C26.1423461,20.387448 26.6390648,19.9242644 26.6390648,19.3529715 L26.6390648,13.7841437"
                                                id="path1059" stroke="#000000" stroke-width="1.99999995"></path>
                                        </g>
                                        <g id="g1061" transform="translate(0.161500, 0.000000)">
                                            <path
                                                d="M26.0576117,0 L31.6729239,11.2779056 C32.239502,12.415843 31.3482638,13.7177375 30.002674,13.7177375 L7.4549644,13.7177375 C6.72230429,13.7177375 6.05937074,13.3127922 5.76678481,12.6865813 L0,0.345644511"
                                                id="path1063" stroke="#000000" stroke-width="1.99999995"></path>
                                        </g>
                                    </g>
                                </g>
                            </g>
                        </g>
                    </g>
                    <text font-family="SegoeUI, Segoe UI" font-size="14" font-weight="normal" fill="#000000">
                        <tspan x="0" y="23">Feed</tspan>
                    </text>
                </g>
            </g>
            <g id="AZ-Feed" transform="translate(224.000000, 311.026000)">
                <g id="cloud" fill-rule="nonzero">
                    <path
                        d="M117.56,76.467 C128.984,76.467 138.246,68.125 138.246,57.835 C138.246,48.945 131.332,41.515 122.085,39.655 C122.872,37.134 123.293,34.475 123.293,31.727 C123.293,15.574 108.756,2.481 90.823,2.481 C74.044,2.481 60.238,13.944 58.531,28.65 C53.96,24.891 47.167,23.729 41.179,26.185 C34.74,28.826 31.197,34.846 31.95,40.853 C29.354,39.796 26.475,39.203 23.44,39.203 C12.015,39.203 2.754,47.545 2.754,57.835 C2.754,68.126 12.015,76.467 23.44,76.467 L117.56,76.467 L117.56,76.467 Z"
                        id="Path" fill="#93E7F8"></path>
                    <path
                        d="M117.56,78.948 L65.451,78.948 C63.93,78.948 62.697,77.837 62.697,76.467 C62.697,75.097 63.93,73.987 65.451,73.987 L117.56,73.987 C127.448,73.987 135.492,66.741 135.492,57.835 C135.492,50.336 129.601,43.708 121.485,42.076 C120.747,41.928 120.109,41.512 119.721,40.928 C119.333,40.343 119.229,39.64 119.434,38.985 C120.168,36.633 120.54,34.191 120.54,31.727 C120.54,16.968 107.209,4.961 90.823,4.961 C75.56,4.961 62.855,15.256 61.27,28.908 C61.162,29.839 60.481,30.636 59.509,30.969 C58.538,31.301 57.442,31.113 56.674,30.482 C52.767,27.269 47.133,26.469 42.32,28.443 C37.112,30.58 34.044,35.455 34.687,40.576 C34.798,41.462 34.372,42.334 33.571,42.859 C32.771,43.385 31.718,43.482 30.816,43.114 C28.485,42.165 26.003,41.684 23.44,41.684 C13.552,41.683 5.508,48.929 5.508,57.835 C5.508,66.741 13.552,73.987 23.44,73.987 L43.42,73.987 C44.941,73.987 46.174,75.097 46.174,76.467 C46.174,77.837 44.941,78.948 43.42,78.948 L23.44,78.948 C10.515,78.948 0,69.477 0,57.835 C0,46.193 10.515,36.722 23.44,36.722 C25.405,36.722 27.333,36.939 29.207,37.368 C29.919,31.568 33.945,26.427 40.037,23.928 C45.407,21.725 51.499,21.958 56.55,24.378 C58.182,18.185 61.863,12.549 67.176,8.212 C73.663,2.917 82.061,0 90.823,0 C110.246,0 126.048,14.233 126.048,31.727 C126.048,33.818 125.821,35.896 125.373,37.932 C129.418,39.224 133.043,41.517 135.772,44.546 C139.143,48.288 141,53.007 141,57.835 C141,69.477 130.485,78.948 117.56,78.948 Z"
                        id="Path" fill="#000000"></path>
                    <path
                        d="M90.913,14.883 C90.909,14.883 90.905,14.883 90.901,14.883 L90.823,14.883 C89.302,14.883 88.069,13.772 88.069,12.402 C88.069,11.032 89.302,9.922 90.823,9.922 L90.925,9.922 C92.446,9.928 93.674,11.044 93.6670298,12.413 C93.66,13.78 92.429,14.883 90.913,14.883 Z"
                        id="Path" fill="#000000"></path>
                    <path
                        d="M112.278,34.207 C110.757,34.207 109.524,33.097 109.524,31.727 C109.524,25.736 105.944,20.147 100.181,17.14 C98.865,16.453 98.416,14.935 99.179,13.75 C99.941,12.564 101.626,12.16 102.942,12.847 C110.399,16.738 115.032,23.972 115.032,31.727 C115.032,33.097 113.799,34.207 112.278,34.207 Z"
                        id="Path" fill="#000000"></path>
                    <path
                        d="M54.436,78.948 C53.709,78.948 53.002,78.683 52.489,78.221 C51.974,77.76 51.683,77.12 51.683,76.467 C51.683,75.815 51.974,75.175 52.489,74.714 C53.002,74.252 53.712,73.987 54.436,73.987 C55.161,73.987 55.871,74.252 56.383,74.714 C56.896,75.175 57.19,75.815 57.19,76.467 C57.19,77.12 56.896,77.76 56.383,78.221 C55.871,78.683 55.161,78.948 54.436,78.948 Z"
                        id="Path" fill="#000000"></path>
                </g>
                <g id="Feed" transform="translate(39.000000, 38.000000)">
                    <g id="folder" transform="translate(38.000000, 0.000000)">
                        <mask id="mask-10" fill="white">
                            <use xlink:href="#path-9"></use>
                        </mask>
                        <g id="bg"></g>
                        <g id="g1047" mask="url(#mask-10)">
                            <g transform="translate(16.999999, 17.000000) scale(-1, 1) rotate(-180.000000) translate(-16.999999, -17.000000) translate(0.000000, 0.000001)"
                                id="g1051-Clipped">
                                <mask id="mask-12" fill="white">
                                    <use xlink:href="#path-11"></use>
                                </mask>
                                <g id="path1053"></g>
                                <g id="g1051" mask="url(#mask-12)">
                                    <g transform="translate(0.995416, 4.814094)">
                                        <g id="g1057" transform="translate(-0.000000, 0.000000)" stroke-linecap="round">
                                            <path
                                                d="M26.2191117,0 L1.16091399,0 C0.519761688,0 0,0.484632784 0,1.08242181 L0,23.3373463 C0,23.9086392 0.496718721,24.3718228 1.10951556,24.3718228 L9.16459321,24.3718228 C9.5355385,24.3718228 9.88191348,24.1989673 10.0877728,23.9111626 L12.306804,20.8076667 C12.4945344,20.5450964 12.8105617,20.387448 13.1490344,20.387448 L25.5295493,20.387448 C26.1423461,20.387448 26.6390648,19.9242644 26.6390648,19.3529715 L26.6390648,13.7841437"
                                                id="path1059" stroke="#000000" stroke-width="1.99999995"></path>
                                        </g>
                                        <g id="g1061" transform="translate(0.161500, 0.000000)">
                                            <path
                                                d="M26.0576117,0 L31.6729239,11.2779056 C32.239502,12.415843 31.3482638,13.7177375 30.002674,13.7177375 L7.4549644,13.7177375 C6.72230429,13.7177375 6.05937074,13.3127922 5.76678481,12.6865813 L0,0.345644511"
                                                id="path1063" stroke="#000000" stroke-width="1.99999995"></path>
                                        </g>
                                    </g>
                                </g>
                            </g>
                        </g>
                    </g>
                    <text font-family="SegoeUI, Segoe UI" font-size="14" font-weight="normal" fill="#000000">
                        <tspan x="0" y="23">Feed</tspan>
                    </text>
                </g>
            </g>
            <g id="EpiSync-Central" transform="translate(206.000000, 0.000000)">
                <rect id="Rectangle" fill="#15A9E9" fill-rule="nonzero" x="0" y="0" width="177" height="100" rx="10">
                </rect>
                <text id="EpiSync-Website" font-family="SegoeUI, Segoe UI" font-size="14" font-weight="normal"
                    fill="#000000">
                    <tspan x="79" y="46">EpiSync</tspan>
                    <tspan x="79" y="65">Website</tspan>
                </text>
                <g id="symbol" transform="translate(18.000000, 19.000000)">
                    <path
                        d="M34.252,56.838 L34.252,55.945 C34.252,47.01 26.941,39.698 18.005,39.698 C9.069,39.698 1.758,47.01 1.758,55.945 L1.758,56.838 C1.758,59.27 3.729,61.242 6.161,61.242 L29.848,61.242 C32.28,61.242 34.252,59.27 34.252,56.838 Z"
                        id="Path" fill="#CEE8FA" fill-rule="nonzero"></path>
                    <path
                        d="M29.848,63 L6.161,63 C2.764,63 0,60.236 0,56.838 L0,55.945 C0,46.017 8.077,37.94 18.005,37.94 C27.933,37.94 36.01,46.017 36.01,55.945 L36.01,56.838 C36.01,60.236 33.246,63 29.848,63 Z M18.005,41.457 C10.016,41.457 3.516,47.956 3.516,55.945 L3.516,56.838 C3.516,58.297 4.703,59.483 6.162,59.483 L29.849,59.483 C31.307,59.483 32.494,58.297 32.494,56.838 L32.494,55.945 C32.494,47.956 25.994,41.457 18.005,41.457 Z"
                        id="Shape" fill="#2D527C" fill-rule="nonzero"></path>
                    <ellipse id="Oval" fill="#FFFFFF" cx="18.5" cy="28" rx="11.5" ry="11"></ellipse>
                    <path
                        d="M18.005,41.261 C10.507,41.261 4.408,35.161 4.408,27.663 C4.408,20.166 10.507,14.066 18.005,14.066 C25.503,14.066 31.602,20.166 31.602,27.664 C31.602,35.161 25.502,41.261 18.005,41.261 Z M18.005,17.583 C12.446,17.583 7.924,22.105 7.924,27.664 C7.924,33.222 12.446,37.744 18.005,37.744 C23.563,37.744 28.086,33.222 28.086,27.664 C28.086,22.105 23.563,17.583 18.005,17.583 Z"
                        id="Shape" fill="#2D527C" fill-rule="nonzero"></path>
                    <path
                        d="M43.815,31.649 C43.765,31.649 43.714,31.647 43.663,31.643 C42.696,31.56 41.979,30.709 42.061,29.741 C42.121,29.04 42.152,28.341 42.152,27.663 C42.152,14.349 31.319,3.516 18.005,3.516 C17.034,3.516 16.246,2.729 16.246,1.758 C16.246,0.787 17.034,0 18.005,0 C33.259,0 45.668,12.41 45.668,27.664 C45.668,28.441 45.634,29.241 45.565,30.041 C45.487,30.957 44.718,31.649 43.815,31.649 Z"
                        id="Path" fill="#2D527C" fill-rule="nonzero"></path>
                    <path
                        d="M36.747,31.65 C36.678,31.65 36.609,31.645 36.539,31.637 C35.574,31.523 34.885,30.649 34.999,29.685 C35.078,29.011 35.119,28.331 35.119,27.664 C35.119,18.227 27.441,10.55 18.005,10.55 C17.034,10.55 16.246,9.763 16.246,8.791 C16.246,7.82 17.034,7.033 18.005,7.033 C29.38,7.033 38.635,16.288 38.635,27.663 C38.635,28.468 38.587,29.287 38.491,30.097 C38.385,30.991 37.626,31.65 36.747,31.65 Z"
                        id="Path" fill="#2D527C" fill-rule="nonzero"></path>
                </g>
            </g>
            <g id="Vocabulary-Service" transform="translate(410.000000, 0.000000)">
                <rect id="Rectangle" fill="#15A9E9" fill-rule="nonzero" x="0" y="0" width="177" height="100" rx="10">
                </rect>
                <text font-family="SegoeUI, Segoe UI" font-size="14" font-weight="normal" fill="#000000">
                    <tspan x="87" y="46">Vocabulary</tspan>
                    <tspan x="87" y="65">Service</tspan>
                </text>
                <g id="library" transform="translate(10.000000, 19.000000)" fill-rule="nonzero">
                    <rect id="Rectangle" fill="#FFD077" x="2" y="18" width="59" height="39"></rect>
                    <rect id="Rectangle" fill="#B3D7FC" x="22" y="55" width="39" height="5"></rect>
                    <rect id="Rectangle" fill="#B3D7FC" x="2" y="55" width="5" height="5"></rect>
                    <rect id="Rectangle" fill="#C8E7F9" x="32" y="27" width="9" height="14"></rect>
                    <rect id="Rectangle" fill="#C8E7F9" x="46" y="27" width="9" height="14"></rect>
                    <rect id="Rectangle" fill="#F0F0F0" x="2" y="1" width="59" height="17"></rect>
                    <path d="M16,29 C11.0294125,29 7,33.4082462 7,38.8461538 L7,61 L16,61 L16,29 L16,29 Z" id="Path"
                        fill="#FA9C5F"></path>
                    <path d="M25,38.8461538 C25,33.4082462 20.9705875,29 16,29 L16,29 L16,61 L25,61 L25,38.8461538 Z"
                        id="Path" fill="#FA9C5F"></path>
                    <g id="Group" fill="#000000">
                        <path
                            d="M31.7265625,42.625 L41.4140625,42.625 C42.0828633,42.625 42.625,42.0827422 42.625,41.4140625 L42.625,26.8828125 C42.625,26.2141328 42.0828633,25.671875 41.4140625,25.671875 L31.7265625,25.671875 C31.0577617,25.671875 30.515625,26.2141328 30.515625,26.8828125 L30.515625,41.4140625 C30.515625,42.0827422 31.0577617,42.625 31.7265625,42.625 Z M32.9375,28.09375 L40.203125,28.09375 L40.203125,40.203125 L32.9375,40.203125 L32.9375,28.09375 Z"
                            id="Shape"></path>
                        <path
                            d="M46.2578125,42.625 L55.9453125,42.625 C56.6141133,42.625 57.15625,42.0827422 57.15625,41.4140625 L57.15625,26.8828125 C57.15625,26.2141328 56.6141133,25.671875 55.9453125,25.671875 L46.2578125,25.671875 C45.5890117,25.671875 45.046875,26.2141328 45.046875,26.8828125 L45.046875,41.4140625 C45.046875,42.0827422 45.5890117,42.625 46.2578125,42.625 Z M47.46875,28.09375 L54.734375,28.09375 L54.734375,40.203125 L47.46875,40.203125 L47.46875,28.09375 Z"
                            id="Shape"></path>
                        <path
                            d="M60.7890625,0 L1.2109375,0 C0.542136719,0 0,0.542257812 0,1.2109375 L0,60.7890625 C0,61.4577422 0.542136719,62 1.2109375,62 L60.7890625,62 C61.4578633,62 62,61.4577422 62,60.7890625 L62,1.2109375 C62,0.542257812 61.4578633,0 60.7890625,0 Z M2.421875,2.421875 L59.578125,2.421875 L59.578125,16.953125 L2.421875,16.953125 L2.421875,2.421875 Z M4.84375,59.578125 L2.421875,59.578125 L2.421875,57.15625 L4.84375,57.15625 L4.84375,59.578125 Z M14.53125,59.578125 L7.265625,59.578125 L7.265625,38.9921875 C7.265625,34.7293242 10.4288359,31.191207 14.53125,30.6018438 L14.53125,59.578125 Z M24.21875,59.578125 L16.953125,59.578125 L16.953125,30.6018438 C21.0555391,31.191207 24.21875,34.7293242 24.21875,38.9921875 L24.21875,59.578125 Z M15.7421875,28.09375 C9.73278906,28.09375 4.84375,32.9827891 4.84375,38.9921875 L4.84375,54.734375 L2.421875,54.734375 L2.421875,19.375 L59.578125,19.375 L59.578125,49.890625 L36.5703125,49.890625 C35.9030859,49.890625 35.359375,50.4343359 35.359375,51.1015625 C35.359375,51.7687891 35.9030859,52.3125 36.5703125,52.3125 L59.578125,52.3125 L59.578125,54.734375 L26.640625,54.734375 L26.640625,38.9921875 C26.640625,32.9827891 21.7515859,28.09375 15.7421875,28.09375 Z M59.578125,59.578125 L26.640625,59.578125 L26.640625,57.15625 L59.578125,57.15625 L59.578125,59.578125 Z"
                            id="Shape"></path>
                        <path
                            d="M31.7265625,52.3125 C32.3937891,52.3125 32.9375,51.7687891 32.9375,51.1015625 C32.9375,50.4343359 32.3937891,49.890625 31.7265625,49.890625 C31.0593359,49.890625 30.515625,50.4343359 30.515625,51.1015625 C30.515625,51.7687891 31.0593359,52.3125 31.7265625,52.3125 Z"
                            id="Path"></path>
                        <path
                            d="M10.40825,12.4404453 L7.6473125,12.4404453 L7.6473125,5.80450781 C7.6473125,5.61899219 7.5543125,5.47767578 7.36879688,5.38067969 C7.18291797,5.28380469 6.96107422,5.23548828 6.70278125,5.23548828 C6.44424609,5.23548828 6.22228125,5.28380469 6.03676563,5.38067969 C5.85088672,5.47767578 5.75812891,5.61899219 5.75812891,5.80450781 L5.75812891,13.5061914 C5.75812891,13.6919492 5.83877734,13.8352031 6.00031641,13.9360742 C6.16173438,14.0370664 6.35560547,14.0874414 6.5816875,14.0874414 L10.40825,14.0874414 C10.5777812,14.0874414 10.7109844,14.006793 10.8078594,13.8452539 C10.9047344,13.6838359 10.9531719,13.4900859 10.9531719,13.2640039 C10.9531719,13.038043 10.9047344,12.844293 10.8078594,12.6827539 C10.7109844,12.5212148 10.5779023,12.4404453 10.40825,12.4404453 Z"
                            id="Path"></path>
                        <path
                            d="M14.5374258,5.38067969 C14.351668,5.28380469 14.1297031,5.23548828 13.8714102,5.23548828 C13.612875,5.23548828 13.3910312,5.28380469 13.2053945,5.38067969 C13.0196367,5.47767578 12.9268789,5.61899219 12.9268789,5.80450781 L12.9268789,13.5061914 C12.9268789,13.6919492 13.0196367,13.8352031 13.2053945,13.9360742 C13.3910312,14.0370664 13.612875,14.0874414 13.8714102,14.0874414 C14.1297031,14.0874414 14.351668,14.0370664 14.5374258,13.9360742 C14.7230625,13.8352031 14.8159414,13.6919492 14.8159414,13.5061914 L14.8159414,5.80450781 C14.8159414,5.61887109 14.7230625,5.47755469 14.5374258,5.38067969 Z"
                            id="Path"></path>
                        <path
                            d="M22.0330078,9.29200781 C22.719125,8.99339062 23.0623047,8.35958594 23.0623047,7.39083594 C23.0623047,5.9539375 22.2549727,5.23536719 20.6404297,5.23536719 L18.1580078,5.23536719 C17.9319258,5.23536719 17.7381758,5.28586328 17.5767578,5.38673437 C17.4150977,5.48772656 17.3345703,5.63098047 17.3345703,5.81661719 L17.3345703,13.5181797 C17.3345703,13.6717266 17.409043,13.8048086 17.5585937,13.9177891 C17.7079023,14.0310117 17.907707,14.0873203 18.1580078,14.0873203 L20.8462891,14.0873203 C21.588957,14.0873203 22.1802578,13.8795234 22.6201914,13.4636875 C23.060125,13.0479727 23.2801523,12.3880117 23.2801523,11.4838047 L23.2801523,11.2295078 C23.2801523,10.6644844 23.1751641,10.2384766 22.9653086,9.95184766 C22.7554531,9.66546094 22.4448477,9.44543359 22.0330078,9.29200781 Z M19.2115234,6.88224219 L20.4830078,6.88224219 C20.7009766,6.88224219 20.8705078,6.96700781 20.9916016,7.13653906 C21.1126953,7.30607031 21.1732422,7.50405859 21.1732422,7.72989844 C21.1732422,7.95598047 21.1126953,8.15178906 20.9916016,8.31720312 C20.8705078,8.48273828 20.7009766,8.56556641 20.4830078,8.56556641 L19.2115234,8.56556641 L19.2115234,6.88224219 Z M21.3912109,11.3263828 C21.3912109,12.0691719 21.0682539,12.4404453 20.4224609,12.4404453 L19.2115234,12.4404453 L19.2115234,10.0185703 L20.4224609,10.0185703 C21.0682539,10.0185703 21.3912109,10.3898437 21.3912109,11.1325117 L21.3912109,11.3263828 Z"
                            id="Shape"></path>
                        <path
                            d="M30.0736328,10.2849766 C31.0502539,9.90558984 31.5388672,9.08626953 31.5388672,7.82677344 C31.5388672,6.09925 30.5458984,5.23548828 28.5599609,5.23548828 L26.0533203,5.23548828 C25.8837891,5.23548828 25.7445313,5.29203906 25.6355469,5.40489844 C25.5266836,5.51812109 25.4720703,5.65120312 25.4720703,5.80450781 L25.4720703,13.5061914 C25.4720703,13.6919492 25.5648281,13.8352031 25.7505859,13.9360742 C25.9362227,14.0370664 26.1580664,14.0874414 26.4166016,14.0874414 C26.6748945,14.0874414 26.8968594,14.0370664 27.0826172,13.9360742 C27.2682539,13.8352031 27.3611328,13.6919492 27.3611328,13.5061914 L27.3611328,10.5877109 L28.1604727,10.5877109 L29.8193359,13.8089258 C29.9404297,14.0432422 30.1421719,14.1599766 30.4248047,14.1599766 C30.7073164,14.1599766 30.9759023,14.0552305 31.2300781,13.8451328 C31.484375,13.6353984 31.6115234,13.4134336 31.6115234,13.1791172 C31.6115234,13.0904766 31.5911797,13.0176992 31.5509766,12.9611484 L30.0736328,10.2849766 Z M29.3712891,8.87423438 C29.1854102,9.04800391 28.9150078,9.13446484 28.5599609,9.13446484 L27.3611328,9.13446484 L27.3611328,6.88212109 L28.5599609,6.88212109 C28.9151289,6.88212109 29.1854102,6.96894531 29.3712891,7.14247266 C29.5568047,7.31612109 29.6498047,7.60456641 29.6498047,8.00817188 C29.6498047,8.41226172 29.5568047,8.70082813 29.3712891,8.87423438 Z"
                            id="Shape"></path>
                        <path
                            d="M37.896168,5.79239844 C37.8315039,5.59065625 37.6842539,5.43517187 37.4542969,5.3261875 C37.2242187,5.21720312 36.9596289,5.16258984 36.6610117,5.16258984 C36.3622734,5.16258984 36.0980469,5.21708203 35.8678477,5.3261875 C35.6378906,5.43505078 35.4903984,5.59065625 35.4259766,5.79239844 L33.1735117,13.1791172 C33.1572852,13.2437813 33.149293,13.2881016 33.149293,13.3123203 C33.149293,13.5222969 33.2804375,13.7039375 33.5428477,13.8572422 C33.8051367,14.0107891 34.0775977,14.0873203 34.3602305,14.0873203 C34.7072852,14.0873203 34.9131445,13.9703438 34.9779297,13.7361484 L35.3895273,12.2224766 L37.9447266,12.2224766 L38.3563242,13.7361484 C38.4208672,13.9704648 38.6267266,14.0873203 38.9740234,14.0873203 C39.2565352,14.0873203 39.5289961,14.010668 39.7914062,13.8572422 C40.0535742,13.7039375 40.1849609,13.5222969 40.1849609,13.3123203 C40.1849609,13.2882227 40.1768477,13.2439023 40.1607422,13.1791172 L37.896168,5.79239844 Z M35.7770273,10.7693516 L36.6610117,7.52403906 L37.5451172,10.7693516 L35.7770273,10.7693516 Z"
                            id="Shape"></path>
                        <path
                            d="M46.6995625,10.2849766 C47.6761836,9.90558984 48.1647969,9.08626953 48.1647969,7.82677344 C48.1647969,6.09925 47.1718281,5.23548828 45.1858906,5.23548828 L42.67925,5.23548828 C42.5097188,5.23548828 42.3704609,5.29203906 42.2614766,5.40489844 C42.1526133,5.51812109 42.098,5.65120313 42.098,5.80450781 L42.098,13.5061914 C42.098,13.6919492 42.1907578,13.8352031 42.3765156,13.9360742 C42.5621523,14.0370664 42.7839961,14.0874414 43.0425313,14.0874414 C43.3008242,14.0874414 43.5227891,14.0370664 43.7085469,13.9360742 C43.8941836,13.8352031 43.9870625,13.6919492 43.9870625,13.5061914 L43.9870625,10.5877109 L44.7864023,10.5877109 L46.4452656,13.8089258 C46.5663594,14.0432422 46.7681016,14.1599766 47.0507344,14.1599766 C47.3332461,14.1599766 47.601832,14.0552305 47.8560078,13.8451328 C48.1103047,13.6353984 48.2374531,13.4134336 48.2374531,13.1791172 C48.2374531,13.0904766 48.2171094,13.0176992 48.1769063,12.9611484 L46.6995625,10.2849766 Z M45.9973398,8.87423438 C45.8114609,9.04800391 45.5410586,9.13446484 45.1860117,9.13446484 L43.9871836,9.13446484 L43.9871836,6.88212109 L45.1860117,6.88212109 C45.5411797,6.88212109 45.8114609,6.96894531 45.9973398,7.14247266 C46.1828555,7.31612109 46.2758555,7.60456641 46.2758555,8.00817188 C46.2757344,8.41226172 46.1828555,8.70082813 45.9973398,8.87423438 Z"
                            id="Shape"></path>
                        <path
                            d="M56.2842539,5.46544531 C55.997625,5.31214063 55.7129336,5.23548828 55.4304219,5.23548828 C55.1882344,5.23548828 55.0065938,5.35258594 54.8855,5.58653906 L53.202418,8.69864844 L51.5071055,5.58653906 C51.4343281,5.45757422 51.361793,5.36675391 51.2891367,5.31407813 C51.2163594,5.26164453 51.1074961,5.23548828 50.9621836,5.23548828 C50.6794297,5.23548828 50.3948594,5.31226172 50.1084727,5.46544531 C49.8218437,5.61899219 49.6784687,5.80063281 49.6784687,6.01036719 C49.6784687,6.06703906 49.6864609,6.11148047 49.7026875,6.14369141 L52.2093281,10.297207 C52.2415391,10.3455234 52.2577656,10.4021953 52.2577656,10.4666172 L52.2577656,13.5061914 C52.2577656,13.6919492 52.3505234,13.8352031 52.5362812,13.9360742 C52.7217969,14.0370664 52.9437617,14.0874414 53.2022969,14.0874414 C53.4605898,14.0874414 53.6825547,14.0370664 53.8683125,13.9360742 C54.0538281,13.8352031 54.1468281,13.6919492 54.1468281,13.5061914 L54.1468281,10.4666172 C54.1468281,10.4021953 54.1629336,10.3455234 54.1952656,10.297207 L56.6897969,6.14369141 C56.7059023,6.11148047 56.7140157,6.06703906 56.7140157,6.01036719 C56.7141367,5.80051172 56.5706406,5.61887109 56.2842539,5.46544531 Z"
                            id="Path"></path>
                        <circle id="Oval" cx="10.8984375" cy="47.46875" r="1.2109375"></circle>
                        <circle id="Oval" cx="20.5859375" cy="47.46875" r="1.2109375"></circle>
                    </g>
                </g>
            </g>
        </g>
    </g>
</svg>